<mxfile host="65bd71144e">
    <diagram id="slkbacljCXw1A-ap-23m" name="Desktop">
        <mxGraphModel dx="2218" dy="1890" grid="1" gridSize="10" guides="1" tooltips="1" connect="1" arrows="1" fold="1" page="1" pageScale="1" pageWidth="850" pageHeight="1100" math="0" shadow="0">
            <root>
                <mxCell id="0"/>
                <mxCell id="1" parent="0"/>
                <mxCell id="2" value="" style="whiteSpace=wrap;html=1;" parent="1" vertex="1">
                    <mxGeometry x="240" y="-160" width="370" height="960" as="geometry"/>
                </mxCell>
                <mxCell id="3" value="" style="whiteSpace=wrap;html=1;fillColor=#0050ef;strokeColor=#001DBC;fontColor=#ffffff;" parent="1" vertex="1">
                    <mxGeometry x="241" y="-160" width="370" height="40" as="geometry"/>
                </mxCell>
                <mxCell id="4" value="About" style="whiteSpace=wrap;html=1;" parent="1" vertex="1">
                    <mxGeometry x="531" y="-150" width="50" height="20" as="geometry"/>
                </mxCell>
                <mxCell id="5" value="Events" style="whiteSpace=wrap;html=1;" parent="1" vertex="1">
                    <mxGeometry x="461" y="-150" width="50" height="20" as="geometry"/>
                </mxCell>
                <mxCell id="6" value="Contact" style="whiteSpace=wrap;html=1;" parent="1" vertex="1">
                    <mxGeometry x="391" y="-150" width="50" height="20" as="geometry"/>
                </mxCell>
                <mxCell id="7" value="" style="whiteSpace=wrap;html=1;" parent="1" vertex="1">
                    <mxGeometry x="251" y="-150" width="20" height="10" as="geometry"/>
                </mxCell>
                <mxCell id="8" value="" style="whiteSpace=wrap;html=1;" parent="1" vertex="1">
                    <mxGeometry x="281" y="-150" width="20" height="10" as="geometry"/>
                </mxCell>
                <mxCell id="9" value="" style="ellipse;whiteSpace=wrap;html=1;" parent="1" vertex="1">
                    <mxGeometry x="560" y="450" width="40" height="40" as="geometry"/>
                </mxCell>
                <mxCell id="10" value="" style="whiteSpace=wrap;html=1;" parent="1" vertex="1">
                    <mxGeometry x="338" y="490" width="175" height="270" as="geometry"/>
                </mxCell>
                <mxCell id="11" value="firstName" style="whiteSpace=wrap;html=1;" parent="1" vertex="1">
                    <mxGeometry x="351" y="500" width="150" height="20" as="geometry"/>
                </mxCell>
                <mxCell id="12" value="lastName" style="whiteSpace=wrap;html=1;" parent="1" vertex="1">
                    <mxGeometry x="351" y="530" width="150" height="20" as="geometry"/>
                </mxCell>
                <mxCell id="13" value="email" style="whiteSpace=wrap;html=1;" parent="1" vertex="1">
                    <mxGeometry x="351" y="560" width="150" height="20" as="geometry"/>
                </mxCell>
                <mxCell id="14" value="textarea" style="whiteSpace=wrap;html=1;" parent="1" vertex="1">
                    <mxGeometry x="350.5" y="700" width="150.5" height="20" as="geometry"/>
                </mxCell>
                <mxCell id="15" value="" style="ellipse;whiteSpace=wrap;html=1;" parent="1" vertex="1">
                    <mxGeometry x="390" y="778" width="10" height="10" as="geometry"/>
                </mxCell>
                <mxCell id="41" style="edgeStyle=orthogonalEdgeStyle;rounded=0;orthogonalLoop=1;jettySize=auto;html=1;" parent="1" source="18" edge="1">
                    <mxGeometry relative="1" as="geometry">
                        <mxPoint x="455" y="830" as="targetPoint"/>
                    </mxGeometry>
                </mxCell>
                <mxCell id="18" value="" style="ellipse;whiteSpace=wrap;html=1;" parent="1" vertex="1">
                    <mxGeometry x="450" y="778" width="10" height="10" as="geometry"/>
                </mxCell>
                <mxCell id="19" value="" style="ellipse;whiteSpace=wrap;html=1;" parent="1" vertex="1">
                    <mxGeometry x="420" y="778" width="10" height="10" as="geometry"/>
                </mxCell>
                <mxCell id="21" value="footer/hubs" style="text;html=1;resizable=0;autosize=1;align=center;verticalAlign=middle;points=[];fillColor=none;strokeColor=none;rounded=0;" parent="1" vertex="1">
                    <mxGeometry x="250" y="773" width="80" height="20" as="geometry"/>
                </mxCell>
                <mxCell id="22" value="contact" style="text;html=1;resizable=0;autosize=1;align=center;verticalAlign=middle;points=[];fillColor=none;strokeColor=none;rounded=0;" parent="1" vertex="1">
                    <mxGeometry x="250" y="580" width="50" height="20" as="geometry"/>
                </mxCell>
                <mxCell id="37" style="edgeStyle=orthogonalEdgeStyle;rounded=0;orthogonalLoop=1;jettySize=auto;html=1;" parent="1" source="23" edge="1">
                    <mxGeometry relative="1" as="geometry">
                        <mxPoint x="650" y="470" as="targetPoint"/>
                    </mxGeometry>
                </mxCell>
                <mxCell id="23" value="WSP" style="text;html=1;resizable=0;autosize=1;align=center;verticalAlign=middle;points=[];fillColor=none;strokeColor=none;rounded=0;" parent="1" vertex="1">
                    <mxGeometry x="560" y="460" width="40" height="20" as="geometry"/>
                </mxCell>
                <mxCell id="24" value="languages, main hebrew, then spanish and english" style="text;html=1;resizable=0;autosize=1;align=center;verticalAlign=middle;points=[];fillColor=none;strokeColor=none;rounded=0;" parent="1" vertex="1">
                    <mxGeometry x="-80" y="-155" width="290" height="20" as="geometry"/>
                </mxCell>
                <mxCell id="26" value="type" style="whiteSpace=wrap;html=1;" parent="1" vertex="1">
                    <mxGeometry x="350" y="590" width="150" height="20" as="geometry"/>
                </mxCell>
                <mxCell id="28" value="" style="ellipse;whiteSpace=wrap;html=1;" parent="1" vertex="1">
                    <mxGeometry x="391" y="630" width="10" height="10" as="geometry"/>
                </mxCell>
                <mxCell id="32" style="edgeStyle=orthogonalEdgeStyle;rounded=0;orthogonalLoop=1;jettySize=auto;html=1;" parent="1" source="29" edge="1">
                    <mxGeometry relative="1" as="geometry">
                        <mxPoint x="710" y="635" as="targetPoint"/>
                    </mxGeometry>
                </mxCell>
                <mxCell id="29" value="" style="ellipse;whiteSpace=wrap;html=1;" parent="1" vertex="1">
                    <mxGeometry x="451" y="630" width="10" height="10" as="geometry"/>
                </mxCell>
                <mxCell id="30" value="" style="ellipse;whiteSpace=wrap;html=1;" parent="1" vertex="1">
                    <mxGeometry x="421" y="630" width="10" height="10" as="geometry"/>
                </mxCell>
                <mxCell id="31" value="date" style="whiteSpace=wrap;html=1;" parent="1" vertex="1">
                    <mxGeometry x="350" y="645" width="150" height="20" as="geometry"/>
                </mxCell>
                <mxCell id="34" value="to add type of event or meaning/purpose of contact" style="text;html=1;resizable=0;autosize=1;align=center;verticalAlign=middle;points=[];fillColor=none;strokeColor=none;rounded=0;" parent="1" vertex="1">
                    <mxGeometry x="710" y="625" width="290" height="20" as="geometry"/>
                </mxCell>
                <mxCell id="35" value="submit" style="whiteSpace=wrap;html=1;" parent="1" vertex="1">
                    <mxGeometry x="395" y="732" width="60" height="20" as="geometry"/>
                </mxCell>
                <mxCell id="36" style="edgeStyle=orthogonalEdgeStyle;rounded=0;orthogonalLoop=1;jettySize=auto;html=1;" parent="1" edge="1">
                    <mxGeometry relative="1" as="geometry">
                        <mxPoint x="704" y="741.5" as="targetPoint"/>
                        <mxPoint x="455" y="741.5" as="sourcePoint"/>
                    </mxGeometry>
                </mxCell>
                <mxCell id="38" value="visible from everywhere/fixed" style="text;html=1;resizable=0;autosize=1;align=center;verticalAlign=middle;points=[];fillColor=none;strokeColor=none;rounded=0;" parent="1" vertex="1">
                    <mxGeometry x="660" y="460" width="170" height="20" as="geometry"/>
                </mxCell>
                <mxCell id="39" value="messagge of confirmation by email for both&amp;nbsp;" style="text;html=1;resizable=0;autosize=1;align=center;verticalAlign=middle;points=[];fillColor=none;strokeColor=none;rounded=0;" parent="1" vertex="1">
                    <mxGeometry x="710" y="732" width="250" height="20" as="geometry"/>
                </mxCell>
                <mxCell id="42" value="if they don't have, we can add in step2" style="text;html=1;resizable=0;autosize=1;align=center;verticalAlign=middle;points=[];fillColor=none;strokeColor=none;rounded=0;" parent="1" vertex="1">
                    <mxGeometry x="451" y="840" width="220" height="20" as="geometry"/>
                </mxCell>
                <mxCell id="43" value="" style="whiteSpace=wrap;html=1;" parent="1" vertex="1">
                    <mxGeometry x="311" y="-150" width="20" height="10" as="geometry"/>
                </mxCell>
                <mxCell id="50" value="carrousel fotos platos principales, eventos, personas" style="whiteSpace=wrap;html=1;" parent="1" vertex="1">
                    <mxGeometry x="270" y="150" width="310" height="120" as="geometry"/>
                </mxCell>
                <mxCell id="51" value="" style="ellipse;whiteSpace=wrap;html=1;" parent="1" vertex="1">
                    <mxGeometry x="390" y="250" width="10" height="10" as="geometry"/>
                </mxCell>
                <mxCell id="52" value="" style="ellipse;whiteSpace=wrap;html=1;" parent="1" vertex="1">
                    <mxGeometry x="450" y="250" width="10" height="10" as="geometry"/>
                </mxCell>
                <mxCell id="53" value="" style="ellipse;whiteSpace=wrap;html=1;" parent="1" vertex="1">
                    <mxGeometry x="420" y="250" width="10" height="10" as="geometry"/>
                </mxCell>
                <mxCell id="55" value="jalabi:&lt;br&gt;description" style="whiteSpace=wrap;html=1;" parent="1" vertex="1">
                    <mxGeometry x="381" y="300" width="90" height="120" as="geometry"/>
                </mxCell>
                <mxCell id="56" value="bazaari:&lt;br&gt;description" style="whiteSpace=wrap;html=1;" parent="1" vertex="1">
                    <mxGeometry x="270" y="300" width="90" height="120" as="geometry"/>
                </mxCell>
                <mxCell id="57" value="vegan:&lt;br&gt;description" style="whiteSpace=wrap;html=1;" parent="1" vertex="1">
                    <mxGeometry x="490" y="300" width="90" height="120" as="geometry"/>
                </mxCell>
                <mxCell id="60" value="contact for more information" style="whiteSpace=wrap;html=1;" parent="1" vertex="1">
                    <mxGeometry x="320" y="440" width="210" height="20" as="geometry"/>
                </mxCell>
                <mxCell id="63" style="edgeStyle=orthogonalEdgeStyle;rounded=0;orthogonalLoop=1;jettySize=auto;html=1;exitX=1;exitY=0.5;exitDx=0;exitDy=0;" parent="1" source="31" edge="1">
                    <mxGeometry relative="1" as="geometry">
                        <mxPoint x="730" y="670" as="targetPoint"/>
                        <mxPoint x="510" y="667" as="sourcePoint"/>
                        <Array as="points">
                            <mxPoint x="710" y="655"/>
                        </Array>
                    </mxGeometry>
                </mxCell>
                <mxCell id="64" value="validations" style="text;html=1;resizable=0;autosize=1;align=center;verticalAlign=middle;points=[];fillColor=none;strokeColor=none;rounded=0;" parent="1" vertex="1">
                    <mxGeometry x="730" y="660" width="70" height="20" as="geometry"/>
                </mxCell>
                <mxCell id="65" value="quantity" style="whiteSpace=wrap;html=1;" parent="1" vertex="1">
                    <mxGeometry x="350" y="673" width="150" height="20" as="geometry"/>
                </mxCell>
                <mxCell id="SsgqtolIhEpygqXPZuCs-65" value="About" style="whiteSpace=wrap;html=1;" parent="1" vertex="1">
                    <mxGeometry x="270" y="-80" width="310" height="200" as="geometry"/>
                </mxCell>
                <mxCell id="SsgqtolIhEpygqXPZuCs-66" value="Title" style="text;html=1;resizable=0;autosize=1;align=center;verticalAlign=middle;points=[];fillColor=none;strokeColor=none;rounded=0;" parent="1" vertex="1">
                    <mxGeometry x="406" y="130" width="40" height="20" as="geometry"/>
                </mxCell>
                <mxCell id="SsgqtolIhEpygqXPZuCs-67" value="Title" style="text;html=1;resizable=0;autosize=1;align=center;verticalAlign=middle;points=[];fillColor=none;strokeColor=none;rounded=0;" parent="1" vertex="1">
                    <mxGeometry x="405" y="-100" width="40" height="20" as="geometry"/>
                </mxCell>
                <mxCell id="SsgqtolIhEpygqXPZuCs-68" value="Title" style="text;html=1;resizable=0;autosize=1;align=center;verticalAlign=middle;points=[];fillColor=none;strokeColor=none;rounded=0;" parent="1" vertex="1">
                    <mxGeometry x="411" y="280" width="40" height="20" as="geometry"/>
                </mxCell>
                <mxCell id="SsgqtolIhEpygqXPZuCs-69" value="Title" style="text;html=1;resizable=0;autosize=1;align=center;verticalAlign=middle;points=[];fillColor=none;strokeColor=none;rounded=0;" parent="1" vertex="1">
                    <mxGeometry x="410" y="470" width="40" height="20" as="geometry"/>
                </mxCell>
            </root>
        </mxGraphModel>
    </diagram>
    <diagram name="Mobile" id="xYlKv0tJGiM4KyBFD54C">
        <mxGraphModel dx="555" dy="790" grid="1" gridSize="10" guides="1" tooltips="1" connect="1" arrows="1" fold="1" page="1" pageScale="1" pageWidth="850" pageHeight="1100" math="0" shadow="0">
            <root>
                <mxCell id="nApeRoToqeeEcsIfdJKn-0"/>
                <mxCell id="nApeRoToqeeEcsIfdJKn-1" parent="nApeRoToqeeEcsIfdJKn-0"/>
                <mxCell id="nApeRoToqeeEcsIfdJKn-2" value="" style="whiteSpace=wrap;html=1;" parent="nApeRoToqeeEcsIfdJKn-1" vertex="1">
                    <mxGeometry x="260" y="80" width="250" height="880" as="geometry"/>
                </mxCell>
                <mxCell id="nApeRoToqeeEcsIfdJKn-3" value="" style="whiteSpace=wrap;html=1;" parent="nApeRoToqeeEcsIfdJKn-1" vertex="1">
                    <mxGeometry x="260" y="80" width="250" height="40" as="geometry"/>
                </mxCell>
                <mxCell id="nApeRoToqeeEcsIfdJKn-9" value="" style="ellipse;whiteSpace=wrap;html=1;" parent="nApeRoToqeeEcsIfdJKn-1" vertex="1">
                    <mxGeometry x="470" y="80" width="40" height="40" as="geometry"/>
                </mxCell>
                <mxCell id="nApeRoToqeeEcsIfdJKn-10" value="" style="whiteSpace=wrap;html=1;" parent="nApeRoToqeeEcsIfdJKn-1" vertex="1">
                    <mxGeometry x="297.5" y="650" width="175" height="270" as="geometry"/>
                </mxCell>
                <mxCell id="nApeRoToqeeEcsIfdJKn-11" value="firstName" style="whiteSpace=wrap;html=1;" parent="nApeRoToqeeEcsIfdJKn-1" vertex="1">
                    <mxGeometry x="310.5" y="660" width="150" height="20" as="geometry"/>
                </mxCell>
                <mxCell id="nApeRoToqeeEcsIfdJKn-12" value="lastName" style="whiteSpace=wrap;html=1;" parent="nApeRoToqeeEcsIfdJKn-1" vertex="1">
                    <mxGeometry x="310.5" y="690" width="150" height="20" as="geometry"/>
                </mxCell>
                <mxCell id="nApeRoToqeeEcsIfdJKn-13" value="email" style="whiteSpace=wrap;html=1;" parent="nApeRoToqeeEcsIfdJKn-1" vertex="1">
                    <mxGeometry x="310.5" y="720" width="150" height="20" as="geometry"/>
                </mxCell>
                <mxCell id="nApeRoToqeeEcsIfdJKn-14" value="textarea" style="whiteSpace=wrap;html=1;" parent="nApeRoToqeeEcsIfdJKn-1" vertex="1">
                    <mxGeometry x="310" y="860" width="150.5" height="20" as="geometry"/>
                </mxCell>
                <mxCell id="nApeRoToqeeEcsIfdJKn-15" value="" style="ellipse;whiteSpace=wrap;html=1;" parent="nApeRoToqeeEcsIfdJKn-1" vertex="1">
                    <mxGeometry x="350.5" y="938" width="10" height="10" as="geometry"/>
                </mxCell>
                <mxCell id="nApeRoToqeeEcsIfdJKn-17" value="" style="ellipse;whiteSpace=wrap;html=1;" parent="nApeRoToqeeEcsIfdJKn-1" vertex="1">
                    <mxGeometry x="410.5" y="938" width="10" height="10" as="geometry"/>
                </mxCell>
                <mxCell id="nApeRoToqeeEcsIfdJKn-18" value="" style="ellipse;whiteSpace=wrap;html=1;" parent="nApeRoToqeeEcsIfdJKn-1" vertex="1">
                    <mxGeometry x="380.5" y="938" width="10" height="10" as="geometry"/>
                </mxCell>
                <mxCell id="nApeRoToqeeEcsIfdJKn-22" value="WSP" style="text;html=1;resizable=0;autosize=1;align=center;verticalAlign=middle;points=[];fillColor=none;strokeColor=none;rounded=0;" parent="nApeRoToqeeEcsIfdJKn-1" vertex="1">
                    <mxGeometry x="470" y="90" width="40" height="20" as="geometry"/>
                </mxCell>
                <mxCell id="nApeRoToqeeEcsIfdJKn-24" value="type" style="whiteSpace=wrap;html=1;" parent="nApeRoToqeeEcsIfdJKn-1" vertex="1">
                    <mxGeometry x="309.5" y="750" width="150" height="20" as="geometry"/>
                </mxCell>
                <mxCell id="nApeRoToqeeEcsIfdJKn-29" value="date" style="whiteSpace=wrap;html=1;" parent="nApeRoToqeeEcsIfdJKn-1" vertex="1">
                    <mxGeometry x="309.5" y="805" width="150" height="20" as="geometry"/>
                </mxCell>
                <mxCell id="nApeRoToqeeEcsIfdJKn-31" value="submit" style="whiteSpace=wrap;html=1;" parent="nApeRoToqeeEcsIfdJKn-1" vertex="1">
                    <mxGeometry x="354.5" y="892" width="60" height="20" as="geometry"/>
                </mxCell>
                <mxCell id="nApeRoToqeeEcsIfdJKn-37" value="carrousel fotos platos principales, eventos, personas" style="whiteSpace=wrap;html=1;" parent="nApeRoToqeeEcsIfdJKn-1" vertex="1">
                    <mxGeometry x="280" y="140" width="210" height="140" as="geometry"/>
                </mxCell>
                <mxCell id="nApeRoToqeeEcsIfdJKn-38" value="" style="ellipse;whiteSpace=wrap;html=1;" parent="nApeRoToqeeEcsIfdJKn-1" vertex="1">
                    <mxGeometry x="349" y="240" width="10" height="10" as="geometry"/>
                </mxCell>
                <mxCell id="nApeRoToqeeEcsIfdJKn-39" value="" style="ellipse;whiteSpace=wrap;html=1;" parent="nApeRoToqeeEcsIfdJKn-1" vertex="1">
                    <mxGeometry x="409" y="240" width="10" height="10" as="geometry"/>
                </mxCell>
                <mxCell id="nApeRoToqeeEcsIfdJKn-40" value="" style="ellipse;whiteSpace=wrap;html=1;" parent="nApeRoToqeeEcsIfdJKn-1" vertex="1">
                    <mxGeometry x="379" y="240" width="10" height="10" as="geometry"/>
                </mxCell>
                <mxCell id="nApeRoToqeeEcsIfdJKn-41" value="jalabi:&lt;br&gt;description" style="whiteSpace=wrap;html=1;" parent="nApeRoToqeeEcsIfdJKn-1" vertex="1">
                    <mxGeometry x="279" y="470" width="210" height="90" as="geometry"/>
                </mxCell>
                <mxCell id="nApeRoToqeeEcsIfdJKn-42" value="bazaari:&lt;br&gt;description" style="whiteSpace=wrap;html=1;" parent="nApeRoToqeeEcsIfdJKn-1" vertex="1">
                    <mxGeometry x="280" y="290" width="210" height="80" as="geometry"/>
                </mxCell>
                <mxCell id="nApeRoToqeeEcsIfdJKn-43" value="vegan:&lt;br&gt;description" style="whiteSpace=wrap;html=1;" parent="nApeRoToqeeEcsIfdJKn-1" vertex="1">
                    <mxGeometry x="280" y="380" width="210" height="80" as="geometry"/>
                </mxCell>
                <mxCell id="nApeRoToqeeEcsIfdJKn-44" value="contact for more information" style="whiteSpace=wrap;html=1;" parent="nApeRoToqeeEcsIfdJKn-1" vertex="1">
                    <mxGeometry x="279" y="580" width="210" height="20" as="geometry"/>
                </mxCell>
                <mxCell id="nApeRoToqeeEcsIfdJKn-47" value="quantity" style="whiteSpace=wrap;html=1;" parent="nApeRoToqeeEcsIfdJKn-1" vertex="1">
                    <mxGeometry x="309.5" y="833" width="150" height="20" as="geometry"/>
                </mxCell>
                <mxCell id="hxScmfVU9HXKrZaF4g3N-13" value="" style="ellipse;whiteSpace=wrap;html=1;" parent="nApeRoToqeeEcsIfdJKn-1" vertex="1">
                    <mxGeometry x="350.5" y="780" width="10" height="10" as="geometry"/>
                </mxCell>
                <mxCell id="hxScmfVU9HXKrZaF4g3N-14" value="" style="ellipse;whiteSpace=wrap;html=1;" parent="nApeRoToqeeEcsIfdJKn-1" vertex="1">
                    <mxGeometry x="410.5" y="780" width="10" height="10" as="geometry"/>
                </mxCell>
                <mxCell id="hxScmfVU9HXKrZaF4g3N-15" value="" style="ellipse;whiteSpace=wrap;html=1;" parent="nApeRoToqeeEcsIfdJKn-1" vertex="1">
                    <mxGeometry x="380.5" y="780" width="10" height="10" as="geometry"/>
                </mxCell>
                <mxCell id="hxScmfVU9HXKrZaF4g3N-16" value="" style="whiteSpace=wrap;html=1;" parent="nApeRoToqeeEcsIfdJKn-1" vertex="1">
                    <mxGeometry x="10" y="140" width="160" height="180" as="geometry"/>
                </mxCell>
                <mxCell id="nApeRoToqeeEcsIfdJKn-6" value="Contact" style="whiteSpace=wrap;html=1;" parent="nApeRoToqeeEcsIfdJKn-1" vertex="1">
                    <mxGeometry x="20" y="170" width="50" height="20" as="geometry"/>
                </mxCell>
                <mxCell id="nApeRoToqeeEcsIfdJKn-5" value="Events" style="whiteSpace=wrap;html=1;" parent="nApeRoToqeeEcsIfdJKn-1" vertex="1">
                    <mxGeometry x="20" y="200" width="50" height="20" as="geometry"/>
                </mxCell>
                <mxCell id="nApeRoToqeeEcsIfdJKn-4" value="About" style="whiteSpace=wrap;html=1;" parent="nApeRoToqeeEcsIfdJKn-1" vertex="1">
                    <mxGeometry x="20" y="230" width="50" height="20" as="geometry"/>
                </mxCell>
                <mxCell id="nApeRoToqeeEcsIfdJKn-7" value="" style="whiteSpace=wrap;html=1;" parent="nApeRoToqeeEcsIfdJKn-1" vertex="1">
                    <mxGeometry x="140" y="150" width="20" height="10" as="geometry"/>
                </mxCell>
                <mxCell id="hxScmfVU9HXKrZaF4g3N-20" style="edgeStyle=orthogonalEdgeStyle;rounded=0;orthogonalLoop=1;jettySize=auto;html=1;" parent="nApeRoToqeeEcsIfdJKn-1" source="hxScmfVU9HXKrZaF4g3N-18" target="hxScmfVU9HXKrZaF4g3N-16" edge="1">
                    <mxGeometry relative="1" as="geometry"/>
                </mxCell>
                <mxCell id="hxScmfVU9HXKrZaF4g3N-18" value="Menu" style="whiteSpace=wrap;html=1;" parent="nApeRoToqeeEcsIfdJKn-1" vertex="1">
                    <mxGeometry x="270" y="95" width="60" height="15" as="geometry"/>
                </mxCell>
            </root>
        </mxGraphModel>
    </diagram>
</mxfile>